<?xml version="1.0" standalone="no"?><!DOCTYPE svg PUBLIC "-//W3C//DTD SVG 1.1//EN" "http://www.w3.org/Graphics/SVG/1.1/DTD/svg11.dtd"><svg t="1669953872157" class="icon" viewBox="0 0 1024 1024" version="1.1" xmlns="http://www.w3.org/2000/svg" p-id="8669" xmlns:xlink="http://www.w3.org/1999/xlink" width="128" height="128"><path d="M901.086 43.198L844.086 180l-23.4 30h-127.8l-28.798-30-57-136.802c-4.2-8.998-4.2-20.398 1.202-28.798 5.998-9.002 15.6-14.4 25.8-14.4h240c10.198 0 19.802 5.398 25.8 14.4 5.396 8.4 5.396 19.8 1.196 28.798z" fill="#FD003A" p-id="8670"></path><path d="M664.086 180v240h180V180h-180z" fill="#994C0F" p-id="8671"></path><path d="M874.086 360h-424c-16.802 0-30 13.198-30 30v240c0 16.798 13.198 32 30 32h484c16.802 0 30-15.202 30-32v-180c0-49.802-40.2-90-90-90z" fill="#ACE3FC" p-id="8672"></path><path d="M480.086 60v420l-30 30h-360l-30-30V60z" fill="#FD003A" p-id="8673"></path><path d="M480.086 480v120l-28.8 30h-346.2l-45-30v-120z" fill="#FEA832" p-id="8674"></path><path d="M330.086 240h-120c-16.802 0-30 13.198-30 30v120c0 16.798 13.198 30 30 30h120c16.802 0 30-13.202 30-30v-120c0-16.802-13.198-30-30-30z" fill="#CCEFFF" p-id="8675"></path><path d="M542.086 60c0 33-29 60-62 60h-420c-33 0-60-27-60-60s27-60 60-60h420c32.998 0 62 27 62 60z" fill="#FEA832" p-id="8676"></path><path d="M1017.486 892.6c-5.402 7.2-14.4 11.4-23.4 11.4h-844c-49.802 0-90-40.202-90-90V600h904l58.798 266.8c2.402 8.998 0.602 18.6-5.398 25.8z" fill="#FD003A" p-id="8677"></path><path d="M1017.486 892.6c-5.402 7.2-14.4 11.4-23.4 11.4h-514V600h484l58.798 266.8c2.402 8.998 0.602 18.6-5.398 25.8z" fill="#E50027" p-id="8678"></path><path d="M754.086 724c-82.8 0-150 67.2-150 150s67.2 150 150 150 150-67.2 150-150-67.2-150-150-150z" fill="#713708" p-id="8679"></path><path d="M330.086 724c-82.8 0-150 67.2-150 150s67.2 150 150 150 150-67.2 150-150-67.2-150-150-150z" fill="#994C0F" p-id="8680"></path><path d="M754.086 784c-49.802 0-90 40.198-90 90 0 49.798 40.198 90 90 90s90-40.202 90-90c0-49.802-40.2-90-90-90z" fill="#ACE3FC" p-id="8681"></path><path d="M330.086 784c-49.802 0-90 40.198-90 90 0 49.798 40.198 90 90 90s90-40.202 90-90c0-49.802-40.2-90-90-90z" fill="#CCEFFF" p-id="8682"></path><path d="M784.086 874c0 16.798-13.198 30-30 30h-424c-16.802 0-30-13.202-30-30 0-16.802 13.198-30 30-30h424c16.802 0 30 13.198 30 30z" fill="#E4741B" p-id="8683"></path><path d="M784.086 874c0 16.798-13.198 30-30 30h-274v-60h274c16.802 0 30 13.198 30 30z" fill="#BF6015" p-id="8684"></path></svg>