<?xml version="1.0" standalone="no"?><!DOCTYPE svg PUBLIC "-//W3C//DTD SVG 1.1//EN" "http://www.w3.org/Graphics/SVG/1.1/DTD/svg11.dtd"><svg t="1711329270834" class="icon" viewBox="0 0 1024 1024" version="1.1" xmlns="http://www.w3.org/2000/svg" p-id="7798" xmlns:xlink="http://www.w3.org/1999/xlink" width="200" height="200"><path d="M288 70.4C182.4 124.8 124.8 182.4 73.6 288c-92.8 179.2-92.8 268.8-3.2 448 80 153.6 284.8 288 441.6 288s361.6-134.4 441.6-288c89.6-179.2 89.6-268.8 0-448-80-153.6-284.8-288-441.6-288-44.8 0-147.2 32-224 70.4z m169.6 236.8c198.4 99.2 310.4 195.2 310.4 268.8 0 67.2-140.8 224-201.6 224-64 0-99.2-54.4-147.2-224-22.4-80-67.2-192-102.4-249.6C284.8 272 265.6 224 275.2 224c6.4 0 89.6 38.4 182.4 83.2z" fill="#2c2c2c" p-id="7799"></path></svg>
